<svg width="259" height="38" viewBox="0 0 259 38" fill="none" xmlns="http://www.w3.org/2000/svg">
<g filter="url(#filter0_d_191_2)">
<path d="M28.0391 25.4062C26.9844 26.6693 25.4935 27.6523 23.5664 28.3555C21.6393 29.0456 19.5039 29.3906 17.1602 29.3906C14.6992 29.3906 12.5378 28.8568 10.6758 27.7891C8.82682 26.7083 7.39453 25.1458 6.37891 23.1016C5.3763 21.0573 4.86198 18.6549 4.83594 15.8945V13.9609C4.83594 11.1224 5.3112 8.66797 6.26172 6.59766C7.22526 4.51432 8.60547 2.92578 10.4023 1.83203C12.2122 0.72526 14.3281 0.171875 16.75 0.171875C20.1224 0.171875 22.7591 0.979167 24.6602 2.59375C26.5612 4.19531 27.6875 6.53255 28.0391 9.60547H22.3359C22.0755 7.97786 21.4961 6.78646 20.5977 6.03125C19.7122 5.27604 18.4883 4.89844 16.9258 4.89844C14.9336 4.89844 13.4167 5.64714 12.375 7.14453C11.3333 8.64193 10.806 10.8685 10.793 13.8242V15.6406C10.793 18.6224 11.3594 20.875 12.4922 22.3984C13.625 23.9219 15.2852 24.6836 17.4727 24.6836C19.6732 24.6836 21.2422 24.2148 22.1797 23.2773V18.375H16.8477V14.0586H28.0391V25.4062ZM48.8594 23.1406H38.5859L36.6328 29H30.4023L40.9883 0.5625H46.418L57.0625 29H50.832L48.8594 23.1406ZM40.168 18.3945H47.2773L43.7031 7.75L40.168 18.3945ZM67.375 0.5625L74.6797 21.1875L81.9453 0.5625H89.6406V29H83.7617V21.2266L84.3477 7.80859L76.6719 29H72.6484L64.9922 7.82812L65.5781 21.2266V29H59.7188V0.5625H67.375ZM111.867 16.6758H100.617V24.293H113.82V29H94.7578V0.5625H113.781V5.30859H100.617V12.0859H111.867V16.6758ZM134.875 0.5625L142.18 21.1875L149.445 0.5625H157.141V29H151.262V21.2266L151.848 7.80859L144.172 29H140.148L132.492 7.82812L133.078 21.2266V29H127.219V0.5625H134.875ZM178.664 23.1406H168.391L166.438 29H160.207L170.793 0.5625H176.223L186.867 29H180.637L178.664 23.1406ZM169.973 18.3945H177.082L173.508 7.75L169.973 18.3945ZM212.648 29H206.789L195.383 10.2891V29H189.523V0.5625H195.383L206.809 19.3125V0.5625H212.648V29ZM223.996 29H218.137V0.5625H223.996V29ZM245.852 23.1406H235.578L233.625 29H227.395L237.98 0.5625H243.41L254.055 29H247.824L245.852 23.1406ZM237.16 18.3945H244.27L240.695 7.75L237.16 18.3945Z" fill="white"/>
</g>
<defs>
<filter id="filter0_d_191_2" x="0.835938" y="0.171875" width="257.219" height="37.2188" filterUnits="userSpaceOnUse" color-interpolation-filters="sRGB">
<feFlood flood-opacity="0" result="BackgroundImageFix"/>
<feColorMatrix in="SourceAlpha" type="matrix" values="0 0 0 0 0 0 0 0 0 0 0 0 0 0 0 0 0 0 127 0" result="hardAlpha"/>
<feOffset dy="4"/>
<feGaussianBlur stdDeviation="2"/>
<feComposite in2="hardAlpha" operator="out"/>
<feColorMatrix type="matrix" values="0 0 0 0 0 0 0 0 0 0 0 0 0 0 0 0 0 0 0.25 0"/>
<feBlend mode="normal" in2="BackgroundImageFix" result="effect1_dropShadow_191_2"/>
<feBlend mode="normal" in="SourceGraphic" in2="effect1_dropShadow_191_2" result="shape"/>
</filter>
</defs>
</svg>
